<?xml version="1.0" encoding="utf-8"?>
<!-- Generator: Adobe Illustrator 16.0.0, SVG Export Plug-In . SVG Version: 6.00 Build 0)  -->
<!DOCTYPE svg PUBLIC "-//W3C//DTD SVG 1.1//EN" "http://www.w3.org/Graphics/SVG/1.1/DTD/svg11.dtd">
<svg version="1.1" id="Layer_2" xmlns="http://www.w3.org/2000/svg" xmlns:xlink="http://www.w3.org/1999/xlink" x="0px" y="0px"
	 width="190.334px" height="44.667px" viewBox="0 0 190.334 44.667" enable-background="new 0 0 190.334 44.667"
	 xml:space="preserve">
<g>
	<path fill="#FFFFFF" d="M26.345,18.884V18.27H18.32v0.614h2.655v14.564h-2.771v0.615h8.024v-0.615h-2.45V18.884H26.345z
		 M22.741,33.753h-1.314V18.585h1.314V33.753z"/>
	<rect x="21.754" y="18.788" fill="#FFFFFF" width="0.348" height="14.703"/>
</g>
<g>
	<path fill="#FFFF00" d="M24.544,10.109"/>
</g>
<g>
	<path fill="#F03F00" d="M31.439,10.894c-0.957-2.262-1.883-2.926-2.656-3.701c-0.772-0.776-4.667-3.533-4.667-3.533
		c0.319,1.408-0.64,7.065-0.64,7.065l1.727-4.224c1.006,0.082,3.209,2.1,3.209,2.1c2.935,2.667,3.584,5.279,3.714,6.019l0.359,0.206
		C32.318,12.947,31.439,10.894,31.439,10.894z"/>
	<path fill="#FFFF00" d="M25.459,7.033c0.191,1.487-0.72,3.934-0.72,3.934l1.413-1.706c2.635,0.612,4.337,3.667,4.85,4.711
		l0.537,0.31C30.922,11.215,25.459,7.033,25.459,7.033z"/>
</g>
<g>
	<path fill="none" d="M35.997,16.109c1.551,0.171,1.88-0.605,1.88-0.605l-0.849-0.138c-0.168,0.468-0.86,0.43-0.86,0.43
		c-0.74-0.11-0.561-0.536-0.561-0.536h-0.676c-0.022,0.337,0.154,0.514,0.154,0.514C35.348,16.14,35.997,16.109,35.997,16.109z"/>
	<path fill="none" d="M39.714,16.379c-0.6-0.583-1.031-0.617-1.031-0.617c-0.539,0.563-2.481,0.665-2.481,0.665
		c-1.973,0.306-1.892-1.177-1.892-1.177h-0.695h-0.689h-0.191c0,0,0.51-4.841-2.982-8.231c0,0-3.243-3.504-6.118-4.135
		c0,0,0.11,3.813-1.095,7.778c0,0-4.576-1.58-9.509,0.729c0,0,1.89,0.095,3.356,0.47h0.001c0.003,0,0.006,0.002,0.009,0.003
		c0.364,0.093,0.701,0.204,0.977,0.335c0.919,0.38,1.679,0.861,1.95,1.042c3.617-0.19,6.185,0.455,6.185,0.455
		c4.111,0.812,7.275,2.545,9.31,3.962l0.267-0.168c0.682-0.513,1.646-0.761,1.646-0.761C37.567,16.43,39.714,16.379,39.714,16.379z"
		/>
	<path fill="#FFFFFF" d="M27.46,33.348c-1.313,0.976-3.2,1.267-3.2,1.267c-3.83,0.338-6.537-1.39-6.537-1.39
		c-1.551-0.839-2.422-2.186-2.422-2.186c-2.054-2.804-1.359-6.745-1.359-6.745c0.999-5.184,5.789-6.55,5.789-6.55
		c5.708-1.051,9.034,2.128,10.178,3.506l1.079-0.53c-0.944-0.969-3.104-2.853-6.232-3.599c0,0-3.688-1.122-7.599,0.734
		c-3.911,1.855-4.775,4.713-5.223,6.177c-0.447,1.466-0.614,3.202-0.003,5.147s2.729,4.235,4.007,4.945
		c1.278,0.71,3.271,1.947,7.605,1.716c0,0,2.561,0.004,5.275-2.101c0,0,1.331-1.156,2.012-2.006v-1.729
		C29.615,31.841,27.46,33.348,27.46,33.348z"/>
	<path fill="#FFFFFF" d="M31.714,20.362l1.376-0.677c-1.375-1.225-4.164-3.288-8.088-4.137c0,0-4.938-1.363-10.177,0.893
		c-5.238,2.254-6.396,5.724-6.995,7.504c-0.599,1.779-0.822,3.889-0.004,6.252c0.819,2.362,3.655,5.146,5.367,6.008
		c1.712,0.862,4.379,2.365,10.187,2.084c0,0,3.429,0.005,7.064-2.552c0,0,1.656-1.305,2.592-2.323v-2.075
		c-1.642,2.167-4.411,3.921-4.411,3.921c-1.758,1.186-4.286,1.539-4.286,1.539c-5.129,0.411-8.756-1.688-8.756-1.688
		c-2.076-1.019-3.243-2.655-3.243-2.655c-2.75-3.405-1.82-8.193-1.82-8.193c1.339-6.297,7.753-7.958,7.753-7.958
		C25.621,15.079,30.022,18.6,31.714,20.362z"/>
	<path fill="#FFFFFF" d="M37.948,16.839c0,0,1.872-0.174,3.258-0.193c0,0-1.646-1.329-4.11-1.67c0,0-1.766-0.278-3.481-0.273
		c-0.031-3.188-1.129-4.855-1.129-4.855c-1.606-3.423-3.601-4.661-3.601-4.661c-4.439-3.238-5.968-3.235-5.968-3.235
		c0.479,1.151-0.776,7.968-0.776,7.968c-7.793-1.224-10.859,1.746-10.859,1.746c2.235,0.137,3.902,0.51,4.739,0.733
		c0.038,0.011,1.294,0.365,2.192,0.928c-1.88,0.184-3.977,0.604-6.113,1.442c-6.899,2.709-8.425,6.878-9.213,9.017
		c-0.789,2.138-1.084,4.673-0.006,7.512s4.815,6.183,7.07,7.218c2.255,1.036,5.768,2.842,13.417,2.505c0,0,4.517,0.005,9.308-3.065
		c0,0,1.703-1.226,2.95-2.354v-2.404c-2.182,2.354-5.348,4.185-5.348,4.185c-2.315,1.424-5.646,1.848-5.646,1.848
		c-6.756,0.495-11.533-2.027-11.533-2.027c-2.734-1.225-4.272-3.188-4.272-3.188c-3.622-4.092-2.398-9.846-2.398-9.846
		c1.765-7.565,10.214-9.561,10.214-9.561c9.284-1.412,14.997,2.422,17.415,4.605l1.721-0.847c-0.149-0.116-0.308-0.236-0.478-0.359
		l0.236-0.176C35.536,17.828,36.649,17.018,37.948,16.839z M35.607,15.26c0,0-0.18,0.426,0.561,0.536c0,0,0.692,0.038,0.86-0.43
		l0.849,0.138c0,0-0.329,0.776-1.88,0.605c0,0-0.649,0.03-0.911-0.336c0,0-0.177-0.177-0.154-0.514H35.607z M35.083,17.49
		l-0.267,0.168c-2.034-1.417-5.198-3.15-9.31-3.962c0,0-2.567-0.646-6.185-0.455c-0.271-0.181-1.031-0.662-1.95-1.042
		c-0.275-0.131-0.612-0.242-0.977-0.335c-0.003-0.001-0.006-0.003-0.009-0.003h-0.001c-1.467-0.375-3.356-0.47-3.356-0.47
		c4.933-2.31,9.509-0.729,9.509-0.729c1.205-3.965,1.095-7.778,1.095-7.778c2.875,0.631,6.118,4.135,6.118,4.135
		c3.492,3.391,2.982,8.231,2.982,8.231h0.191h0.689h0.695c0,0-0.081,1.482,1.892,1.177c0,0,1.942-0.102,2.481-0.665
		c0,0,0.432,0.034,1.031,0.617c0,0-2.146,0.051-2.985,0.351C36.729,16.729,35.765,16.978,35.083,17.49z"/>
</g>
<text transform="matrix(1 0 0 1 47.3926 18.7881)"><tspan x="0" y="0" fill="#C0C4D1" font-family="'Poppins-ExtraBold'" font-size="14">CONSUMER TOOLS</tspan><tspan x="17.556" y="16" fill="#C0C4D1" font-family="'Poppins-ExtraBold'" font-size="14">&amp; RESOURCES</tspan></text>
</svg>
